<svg xmlns="http://www.w3.org/2000/svg" xmlns:xlink="http://www.w3.org/1999/xlink" viewBox="0 0 835.65 576.92"><defs><style>.cls-1{fill:#f8b94a;}.cls-2{fill:#0071bc;}.cls-3{fill:url(#linear-gradient);}</style><linearGradient id="linear-gradient" x1="23.85" y1="301.79" x2="308.3" y2="434.43" gradientUnits="userSpaceOnUse"><stop offset="0" stop-color="#00a1bc"/><stop offset="1" stop-color="#0071bc"/></linearGradient></defs><title>logo-svg</title><g id="Layer_2" data-name="Layer 2"><g id="Layer_1-2" data-name="Layer 1"><rect class="cls-1" x="605.52" y="153.52" width="31.22" height="115.83" rx="12.75" ry="12.75" transform="translate(331.43 -377.28) rotate(45)"/><rect class="cls-1" x="489.57" y="267.33" width="31.22" height="115.83" rx="12.75" ry="12.75" transform="translate(377.95 -261.95) rotate(45)"/><rect class="cls-1" x="373.77" y="383.92" width="31.22" height="115.83" rx="12.75" ry="12.75" transform="translate(426.47 -145.92) rotate(45)"/><path class="cls-2" d="M395.15,576.92H394L249.7,575.25H248c-1.8,0-7.37,0-17.51,0h-.06A100.14,100.14,0,0,1,159.57,546l-.08-.08L14.73,397.74a49.32,49.32,0,0,1,0-69.69L139.84,203a49.3,49.3,0,0,1,69.74,0l.12.12L312,308.79a13,13,0,0,0,18.27-.05l189-189a25.83,25.83,0,0,0,0-36.49l-41-41.06c-7.45-7.44-10.09-18.15-6.73-27.27A21.78,21.78,0,0,1,490.74.55l.78,0L806.89.05a26.91,26.91,0,0,1,20.59,8.12,26.9,26.9,0,0,1,8.11,20.67L830.73,340.2l0,.32a21.76,21.76,0,0,1-14.36,19.24c-9.12,3.37-19.83.73-27.28-6.72l-49.17-49.17a19.77,19.77,0,0,0-27.83-.06L465.65,547.92A100.77,100.77,0,0,1,395.15,576.92ZM248.85,555h1.07l144.33,1.67a80.49,80.49,0,0,0,57.13-23.13L697.79,289.41a40.09,40.09,0,0,1,56.43.12l49.17,49.18c2.14,2.13,4.52,2.56,5.94,2,.5-.18,1-.46,1.15-1.59l4.86-311.23,0-.32a6.77,6.77,0,0,0-2.21-5.1,6.82,6.82,0,0,0-5.1-2.22l-.79,0-315.21.48a1.59,1.59,0,0,0-1.54,1.14c-.52,1.41-.1,3.8,2,5.93L533.6,68.92a46.14,46.14,0,0,1,0,65.16l-189,189a33.22,33.22,0,0,1-47,0l-.12-.11L195.19,217.28a29,29,0,0,0-41,.05l-125.06,125a29.07,29.07,0,0,0,0,41.08l.09.09L173.94,531.67A79.85,79.85,0,0,0,230.39,555h.06c9.91,0,15.56,0,17.28,0Z"/><path class="cls-3" d="M202.43,571.48l-5.23-1.84A100.83,100.83,0,0,1,159.57,546l0-.05L14.42,398.79a49.32,49.32,0,0,1,0-69.72L139.5,204a49.32,49.32,0,0,1,69.74,0l.07.07L312,308.77a12.78,12.78,0,0,0,9.33,3.76l10.65-.17L331.59,323a324.54,324.54,0,0,1-124.79,245Zm-28.5-39.82a80.51,80.51,0,0,0,24.87,16.85A304.2,304.2,0,0,0,310.9,331.22a33,33,0,0,1-13.28-8.15l-.07-.07L194.88,218.31a29,29,0,0,0-41,0L28.78,343.4a29,29,0,0,0,0,41.08l0,0Z"/></g></g></svg>